<svg width="280" height="120" viewBox="0 0 280 120" fill="none" xmlns="http://www.w3.org/2000/svg">
<g clip-path="url(#clip0_1133_1428)">
<path fill-rule="evenodd" clip-rule="evenodd" d="M26.5769 38.666H66.1756C77.459 38.666 86.6382 47.8774 86.6382 59.1996C86.6382 70.5219 77.459 79.7333 66.1756 79.7333H26.5769C15.2934 79.7333 6.11426 70.5219 6.11426 59.1996C6.11426 47.8774 15.2934 38.666 26.5769 38.666ZM44.7576 70.496C45.2546 71.0189 45.9905 70.993 46.6424 70.8575L46.6489 70.8607C46.9515 70.6145 46.5214 70.3029 46.1106 70.0051C45.8643 69.8266 45.6249 69.6532 45.5548 69.5019C45.7822 69.2245 45.1097 68.595 44.586 68.1049C44.3663 67.8991 44.1728 67.7179 44.0831 67.5977C43.7105 67.1922 43.5607 66.6806 43.4101 66.1658C43.3102 65.8243 43.2099 65.4814 43.0438 65.1673C42.0207 62.7919 40.849 60.4357 39.2062 58.425C38.1504 57.0885 36.9455 55.8917 35.7401 54.6946C34.9631 53.9227 34.1859 53.1508 33.4483 52.3411C32.6893 51.5576 32.2326 50.5924 31.7751 49.6256C31.3921 48.8162 31.0085 48.0056 30.4467 47.2997C28.7458 44.7822 23.3752 44.0947 22.5876 47.6515C22.5909 47.7612 22.5554 47.8322 22.4585 47.9032C22.0228 48.2228 21.6355 48.5842 21.3096 49.0232C20.5123 50.1367 20.3896 52.0248 21.3837 53.0254C21.3851 53.0039 21.3866 52.9825 21.388 52.9612C21.4213 52.4559 21.4523 51.9836 21.8517 51.6214C22.6199 52.283 23.7851 52.5186 24.6759 52.0248C25.7499 53.5655 26.0921 55.4279 26.4353 57.2966C26.7212 58.8535 27.008 60.4146 27.7194 61.7978C27.7341 61.8222 27.7488 61.8467 27.7636 61.8713C28.1816 62.5675 28.6065 63.2748 29.1427 63.8828C29.3375 64.1847 29.7376 64.5106 30.1368 64.836C30.6636 65.2654 31.1893 65.6937 31.2407 66.0646C31.243 66.226 31.2422 66.3895 31.2416 66.554C31.2374 67.528 31.233 68.5366 31.8571 69.3374C32.2024 70.0377 31.3569 70.7413 30.6759 70.6541C30.3025 70.7059 29.8945 70.6076 29.4894 70.5098C28.9352 70.3761 28.3864 70.2437 27.9389 70.4992C27.8134 70.6351 27.633 70.6399 27.4518 70.6447C27.2371 70.6503 27.0209 70.656 26.8932 70.8801C26.8669 70.9468 26.8056 71.022 26.7418 71.1001C26.6017 71.2718 26.4499 71.4579 26.6318 71.5999C26.6481 71.5874 26.6642 71.5751 26.6804 71.5627C26.9558 71.3525 27.2184 71.152 27.5903 71.2771C27.5408 71.5518 27.7183 71.6255 27.8956 71.699C27.9265 71.7118 27.9576 71.7247 27.9873 71.7386C27.9854 71.8024 27.9728 71.8667 27.9603 71.9307C27.9305 72.0831 27.9013 72.2327 28.0196 72.3648C28.0757 72.3077 28.1254 72.2435 28.1751 72.1792C28.2969 72.0218 28.4192 71.8636 28.6393 71.8064C29.1232 72.4525 29.6106 72.1842 30.2221 71.8474C30.9119 71.4676 31.7597 71.0007 32.9383 71.6612C32.4865 71.6386 32.083 71.6934 31.7796 72.0679C31.7054 72.1517 31.6409 72.2485 31.7731 72.3583C32.4706 71.9065 32.7608 72.0689 33.0339 72.2217C33.231 72.332 33.4192 72.4374 33.7452 72.3034C33.8223 72.2632 33.8993 72.2216 33.9765 72.1801C34.5001 71.8975 35.031 71.6111 35.6526 71.7096C35.1884 71.8434 35.0231 72.1377 34.8428 72.4591C34.7537 72.6179 34.6609 72.7833 34.5263 72.9393C34.4553 73.0103 34.423 73.0942 34.5037 73.2136C35.476 73.1328 35.8433 72.8862 36.3396 72.5532C36.5765 72.3943 36.8427 72.2157 37.218 72.0259C37.633 71.7704 38.0479 71.9338 38.4499 72.0922C38.8862 72.2639 39.3072 72.4297 39.6968 72.0484C39.8198 71.9325 39.9742 71.931 40.1279 71.9296C40.1838 71.9291 40.2397 71.9286 40.2939 71.9226C40.1727 71.2731 39.4886 71.2807 38.7944 71.2885C37.9913 71.2974 37.1744 71.3066 37.1987 70.2991C37.9449 69.7896 37.9517 68.9051 37.9582 68.0692C37.9599 67.8674 37.9613 67.6685 37.9733 67.4782C38.5221 67.7843 39.1026 68.0235 39.6795 68.2611C40.2222 68.4847 40.7618 68.707 41.2686 68.9822C41.798 69.8344 42.6242 70.964 43.7248 70.8898C43.7538 70.8026 43.7797 70.7284 43.8119 70.6412C43.8754 70.6523 43.9424 70.6693 44.0105 70.6865C44.2993 70.7598 44.6087 70.8381 44.7576 70.496ZM66.3291 60.813C66.9662 61.4487 67.8306 61.8059 68.7318 61.8059C69.633 61.8059 70.4974 61.4487 71.1346 60.813C71.7719 60.1772 72.13 59.315 72.13 58.416C72.13 57.5169 71.7719 56.6547 71.1346 56.019C70.4974 55.3832 69.633 55.026 68.7318 55.026C68.3098 55.026 67.8957 55.1045 67.5094 55.253L65.5617 52.41L64.2043 53.34L66.1621 56.1978C65.6295 56.8118 65.3337 57.5987 65.3337 58.416C65.3337 59.315 65.6918 60.1772 66.3291 60.813ZM60.2312 51.606C60.708 51.8417 61.2336 51.9623 61.7657 51.9581C62.4918 51.9526 63.1969 51.7152 63.7777 51.2807C64.3587 50.8463 64.7848 50.2377 64.9938 49.5441C65.2028 48.8504 65.1835 48.1083 64.9389 47.4263C64.6944 46.7444 64.2373 46.1585 63.6347 45.7546C63.193 45.4585 62.6878 45.2701 62.1598 45.2044C61.6319 45.1388 61.0957 45.1977 60.5948 45.3766C60.0938 45.5554 59.6418 45.8491 59.2754 46.234C58.909 46.6189 58.6383 47.0843 58.4852 47.5926C58.3321 48.101 58.3006 48.6381 58.3937 49.1608C58.4866 49.6834 58.7013 50.177 59.0206 50.6017C59.3398 51.0264 59.7544 51.3704 60.2312 51.606ZM60.2312 71.2908C60.708 71.5263 61.2336 71.647 61.7657 71.643C62.4918 71.6374 63.1969 71.3999 63.7777 70.9655C64.3587 70.5311 64.7848 69.9224 64.9938 69.2288C65.2028 68.5352 65.1835 67.793 64.9389 67.111C64.6944 66.4291 64.2373 65.8433 63.6347 65.4394C63.193 65.1433 62.6878 64.9548 62.1598 64.8892C61.6319 64.8236 61.0957 64.8825 60.5948 65.0613C60.0938 65.2402 59.6418 65.5339 59.2754 65.9188C58.909 66.3037 58.6383 66.769 58.4852 67.2773C58.3321 67.7857 58.3006 68.3228 58.3937 68.8454C58.4866 69.3682 58.7013 69.8617 59.0206 70.2865C59.3398 70.7112 59.7544 71.0552 60.2312 71.2908ZM63.3553 59.2588V57.5735H58.1544C58.0235 57.0624 57.774 56.5891 57.4258 56.1915L59.3825 53.2926L57.9594 52.3489L56.0028 55.2476C55.6442 55.118 55.2661 55.0497 54.8847 55.0454C53.986 55.0454 53.1243 55.4006 52.4888 56.0327C51.8535 56.6648 51.4964 57.5221 51.4964 58.4162C51.4964 59.3101 51.8535 60.1674 52.4888 60.7996C53.1243 61.4318 53.986 61.7869 54.8847 61.7869C55.2661 61.7825 55.6442 61.7142 56.0028 61.5846L57.9594 64.4835L59.3656 63.5396L57.4258 60.6408C57.774 60.2431 58.0235 59.7698 58.1544 59.2588H63.3553Z" fill="#222222"/>
<path d="M198.64 48.5125C196.874 47.1085 194.44 46.3984 191.406 46.3984C189.218 46.3984 187.227 46.9148 185.488 47.9315C183.747 48.9482 182.357 50.4329 181.356 52.3403C180.352 54.251 179.845 56.5845 179.845 59.2795C179.845 61.3354 180.145 63.1849 180.739 64.776C181.331 66.3639 182.167 67.7228 183.218 68.8169C184.27 69.9078 185.51 70.747 186.904 71.3118C188.299 71.8766 189.816 72.1606 191.41 72.1606C193.791 72.1606 195.864 71.641 197.571 70.6179C199.278 69.5948 200.604 68.1618 201.522 66.3575C202.438 64.5501 202.903 62.4555 202.903 60.1284C202.903 60.0606 202.896 59.8476 202.886 59.4893C202.877 59.2021 202.864 58.9664 202.849 58.7922H194.237V61.8261H198.659L198.64 61.9648C198.43 63.4075 198.016 64.6276 197.41 65.5926C196.799 66.5609 195.999 67.2935 195.038 67.7679C194.076 68.2424 192.933 68.478 191.672 68.4652C189.98 68.4425 188.547 68.0456 187.417 67.2839C186.287 66.5221 185.429 65.4474 184.868 64.0821C184.309 62.7266 184.025 61.1096 184.025 59.2763C184.025 57.4431 184.312 55.8164 184.874 54.4447C185.442 53.0665 186.298 51.9788 187.424 51.2172C188.55 50.4555 189.983 50.0811 191.672 50.1037C193.355 50.1037 194.763 50.5587 195.855 51.4559C196.92 52.3306 197.7 53.5087 198.184 54.9579L202.216 54.3188C201.58 51.8433 200.379 49.8874 198.64 48.506V48.5125Z" fill="#222222"/>
<path d="M250.97 53.8105C249.67 52.9487 248.137 52.5195 246.368 52.5195C244.6 52.5195 243.096 52.9487 241.889 53.8105C241.64 53.988 241.411 54.1785 241.189 54.3818V53.0392H237.496V80.0827H241.708V70.8099C241.783 70.868 241.856 70.9261 241.934 70.981C243.17 71.8492 244.7 72.2817 246.526 72.2817C248.247 72.2817 249.751 71.8492 251.033 70.981C252.314 70.1128 253.308 68.9348 254.015 67.4436C254.719 65.9525 255.073 64.271 255.073 62.399C255.073 60.527 254.715 58.8132 253.999 57.3286C253.282 55.8439 252.275 54.6722 250.974 53.8105H250.97ZM250.138 65.5136C249.797 66.4431 249.274 67.1822 248.57 67.7244C247.866 68.2667 246.969 68.5377 245.882 68.5377C244.793 68.5377 243.855 68.2795 243.166 67.7664C242.479 67.2532 241.975 66.5335 241.66 65.6072C241.34 64.6841 241.182 63.6125 241.182 62.399C241.182 61.1854 241.34 60.101 241.66 59.1844C241.975 58.2646 242.472 57.5481 243.142 57.0349C243.812 56.5216 244.678 56.2634 245.742 56.2634C246.863 56.2634 247.789 56.5378 248.515 57.0865C249.244 57.6352 249.78 58.3743 250.129 59.3071C250.473 60.2366 250.648 61.2694 250.648 62.4022C250.648 63.5351 250.477 64.5841 250.138 65.5136Z" fill="#222222"/>
<path d="M274.454 59.5508C274.38 58.8279 274.216 58.063 273.961 57.2528C273.706 56.4427 273.311 55.681 272.782 54.9645C272.25 54.248 271.533 53.6573 270.633 53.1958C269.733 52.7343 268.586 52.5018 267.202 52.5018C265.446 52.5018 263.964 52.886 262.764 53.6541C262.119 54.0672 261.561 54.5579 261.082 55.1227V46.7988H257.354V71.7606H261.587V62.1393C261.587 60.9967 261.712 60.0575 261.967 59.3216C262.222 58.5891 262.557 58.0113 262.981 57.5885C263.404 57.1657 263.875 56.8688 264.394 56.6944C264.914 56.5202 265.44 56.433 265.973 56.433C266.967 56.433 267.754 56.646 268.337 57.0753C268.922 57.5046 269.361 58.05 269.655 58.7149C269.949 59.3797 270.135 60.0705 270.219 60.787C270.301 61.5034 270.342 62.1555 270.342 62.746V71.7606H274.573V61.3066C274.573 60.8548 274.534 60.2705 274.461 59.5476L274.454 59.5508Z" fill="#222222"/>
<path d="M215.283 53.202C214.708 53.2408 214.144 53.3505 213.598 53.5248C213.053 53.6991 212.552 53.9412 212.104 54.2413C211.575 54.5673 211.119 54.9837 210.745 55.4807C210.58 55.7002 210.428 55.9358 210.281 56.1971L210.125 56.4715V53.2795H206.643V71.6055H210.622V62.2876C210.622 61.5776 210.709 60.903 210.88 60.2864C211.055 59.67 211.326 59.1084 211.69 58.6244C212.055 58.137 212.533 57.7335 213.114 57.4205C213.688 57.0752 214.35 56.8686 215.073 56.8105C215.748 56.7556 216.357 56.8008 216.89 56.9395V53.2666C216.37 53.186 215.832 53.1633 215.283 53.202Z" fill="#222222"/>
<path d="M103.067 46.752V71.6589H120.222V67.8956H106.963V46.752H103.067Z" fill="#222222"/>
<path d="M129.37 52.6614C125.632 52.6614 122.834 54.414 121.698 57.4705C121.623 57.6673 121.407 58.2546 121.407 58.2546L124.612 60.3267L125.048 59.1906C125.79 57.2542 127.165 56.3537 129.37 56.3537C131.574 56.3537 132.836 57.4221 132.813 59.5296C132.813 59.6167 132.807 59.8749 132.807 59.8749C132.807 59.8749 129.889 60.3494 128.689 60.6011C123.56 61.6856 121.41 63.6414 121.41 66.8464C121.41 68.5537 122.359 70.4 124.089 71.436C125.129 72.0589 126.484 72.2912 127.978 72.2912C128.963 72.2912 129.918 72.146 130.806 71.8749C132.82 71.2068 133.378 69.8933 133.378 69.8933V71.6102H136.713V59.3263C136.713 55.1498 133.969 52.6582 129.373 52.6582L129.37 52.6614ZM132.823 65.7716C132.823 67.0626 131.416 68.8797 128.14 68.8797C127.217 68.8797 126.558 68.6345 126.123 68.2698C125.539 67.7823 125.345 67.0788 125.426 66.4624C125.461 66.1944 125.622 65.6135 126.226 65.11C126.842 64.5936 127.93 64.2289 129.612 63.8609C130.996 63.5608 132.823 63.2283 132.823 63.2283V65.7716Z" fill="#222222"/>
<path d="M226.951 52.6614C223.214 52.6614 220.416 54.414 219.279 57.4705C219.205 57.6673 218.989 58.2546 218.989 58.2546L222.194 60.3267L222.63 59.1906C223.372 57.2542 224.747 56.3537 226.951 56.3537C229.156 56.3537 230.417 57.4221 230.395 59.5296C230.395 59.6167 230.389 59.8749 230.389 59.8749C230.389 59.8749 227.47 60.3494 226.271 60.6011C221.142 61.6856 218.992 63.6414 218.992 66.8464C218.992 68.5537 219.941 70.4 221.671 71.436C222.71 72.0589 224.065 72.2912 225.56 72.2912C226.545 72.2912 227.5 72.146 228.387 71.8749C230.402 71.2068 230.96 69.8933 230.96 69.8933V71.6102H234.294V59.3263C234.294 55.1498 231.55 52.6582 226.954 52.6582L226.951 52.6614ZM230.404 65.7716C230.404 67.0626 228.998 68.8797 225.722 68.8797C224.798 68.8797 224.14 68.6345 223.704 68.2698C223.12 67.7823 222.926 67.0788 223.007 66.4624C223.043 66.1944 223.205 65.6135 223.808 65.11C224.424 64.5936 225.512 64.2289 227.193 63.8609C228.578 63.5608 230.404 63.2283 230.404 63.2283V65.7716Z" fill="#222222"/>
<path d="M149.028 52.6614C148.564 52.6614 148.112 52.6937 147.676 52.755C144.69 53.2036 143.816 54.7206 143.816 54.7206V53.2036H140.081V71.6199H143.977V61.4048C143.977 57.9352 146.507 56.3537 148.86 56.3537C151.403 56.3537 152.64 57.7222 152.64 60.5333V71.6167H156.536V59.9976C156.536 55.4693 153.66 52.6582 149.028 52.6582V52.6614Z" fill="#222222"/>
<path d="M172.79 53.1895V55.0873C172.79 55.0873 171.834 52.6602 167.494 52.6602C162.1 52.6602 158.747 56.3847 158.747 62.375C158.747 65.7575 159.828 68.4202 161.735 70.1018C163.217 71.409 165.199 72.0803 167.561 72.1255C169.201 72.1577 170.266 71.7091 170.927 71.2863C172.202 70.4762 172.673 69.7048 172.673 69.7048C172.673 69.7048 172.619 70.3083 172.522 71.1249C172.451 71.7156 172.319 72.1319 172.319 72.1319C171.724 74.2427 169.991 75.4627 167.461 75.4627C164.931 75.4627 163.397 74.6299 163.094 72.9904L159.309 74.12C159.964 77.2733 162.924 79.1582 167.226 79.1582C170.149 79.1582 172.444 78.3642 174.042 76.7925C175.652 75.2109 176.472 72.9291 176.472 70.0114V53.1895H172.79ZM172.545 62.5461C172.545 66.232 170.743 68.4331 167.729 68.4331C164.499 68.4331 162.645 66.2255 162.645 62.3782C162.645 58.5311 164.499 56.3557 167.729 56.3557C170.672 56.3557 172.519 58.5472 172.545 62.0749V62.5429V62.5461Z" fill="#222222"/>
</g>
<defs>
<clipPath id="clip0_1133_1428">
<rect width="269.203" height="42.71" fill="white" transform="translate(5.79688 38.3047)"/>
</clipPath>
</defs>
</svg>
